<svg width="233" height="61" viewBox="0 0 233 61" fill="none" xmlns="http://www.w3.org/2000/svg">
<g clip-path="url(#clip0_31_162)">
<path d="M171.657 4.36971C171.657 1.95765 173.686 0 176.188 0H228.435C230.938 0 232.967 1.95765 232.967 4.36971V56.6311C232.967 59.0439 230.938 61 228.435 61H176.188C173.686 61 171.657 59.0439 171.657 56.6319V4.36891V4.36971Z" fill="#0A66C2"/>
<path d="M0.0317993 51.0965H25.6181V42.7907H9.29287V11.1059H0.0317993V51.0965ZM38.5723 51.0965V23.5518H29.312V51.0965H38.5723ZM33.9429 19.7917C37.1716 19.7917 39.1816 17.6765 39.1816 15.0316C39.1217 12.3291 37.1716 10.2739 34.0044 10.2739C30.8365 10.2739 28.765 12.3299 28.765 15.0316C28.765 17.6765 30.775 19.7917 33.8822 19.7917H33.9429ZM42.8714 51.0965H52.1317V35.7137C52.1317 34.8905 52.1916 34.0673 52.4367 33.4809C53.1051 31.836 54.6288 30.132 57.1874 30.132C60.5391 30.132 61.8799 32.6585 61.8799 36.3594V51.0957H71.1385V35.3025C71.1385 26.8415 66.5699 22.9046 60.4768 22.9046C55.4817 22.9046 53.288 25.6655 52.0694 27.5463H52.1317V23.5518H42.8714C42.9936 26.1367 42.8714 51.0965 42.8714 51.0965ZM84.2027 11.1059H74.9425V51.0965H84.2027V42.1659L86.517 39.285L93.7673 51.0965H105.159L92.9759 33.9977L103.636 22.3654H92.4888C92.4888 22.3654 84.8736 32.7721 84.2027 34.0073V11.1059Z" fill="#0A66C2"/>
<path d="M129.923 39.6066C130.045 38.8994 130.228 37.5426 130.228 36.0082C130.228 28.888 126.572 21.659 116.947 21.659C106.651 21.659 101.898 29.7096 101.898 37.0114C101.898 46.042 107.686 51.6814 117.799 51.6814C121.82 51.6814 125.535 51.0957 128.583 49.8613L127.364 43.8148C124.865 44.634 122.307 45.0444 119.14 45.0444C114.814 45.0444 111.038 43.2883 110.733 39.5474L129.923 39.605V39.6066ZM110.672 33.4129C110.916 31.0624 112.501 27.5943 116.46 27.5943C120.663 27.5943 121.639 31.2968 121.639 33.4129H110.673H110.672ZM153.085 11.1059V24.9495H152.962C151.622 23.0118 148.819 21.719 145.105 21.719C137.976 21.719 131.702 27.3591 131.762 36.9946C131.762 45.926 137.429 51.743 144.494 51.743C148.333 51.743 151.987 50.0965 153.816 46.9236H153.998L154.365 51.0965H162.588C162.467 49.1573 162.344 45.8084 162.344 42.5179V11.1051H153.084L153.085 11.1059ZM153.085 38.3466C153.085 39.0506 153.024 39.757 152.901 40.3427C152.355 42.8707 150.161 44.6316 147.48 44.6316C143.643 44.6316 141.144 41.5771 141.144 36.7594C141.144 32.2361 143.278 28.5928 147.542 28.5928C150.405 28.5928 152.415 30.5312 152.963 32.9393C153.085 33.4697 153.085 34.0577 153.085 34.5857V38.3458V38.3466Z" fill="#0A66C2"/>
<path d="M191.242 51.0629V23.5182H181.981V51.0629H191.242H191.242ZM186.613 19.7581C189.842 19.7581 191.852 17.6429 191.852 14.9996C191.791 12.2963 189.842 10.2403 186.675 10.2403C183.505 10.2403 181.435 12.2963 181.435 14.9996C181.435 17.6429 183.444 19.7581 186.552 19.7581H186.612H186.613ZM196.367 51.0629H205.626V35.6825C205.626 34.8601 205.687 34.0361 205.931 33.4489C206.601 31.8032 208.124 30.1 210.683 30.1C214.033 30.1 215.374 32.6256 215.374 36.3289V51.0629H224.633V35.2697C224.633 26.8095 220.065 22.8726 213.973 22.8726C208.978 22.8726 206.784 25.6327 205.566 27.5127H205.627V23.519H196.368C196.488 26.1031 196.367 51.0637 196.367 51.0637V51.0629Z" fill="white"/>
</g>
<defs>
<clipPath id="clip0_31_162">
<rect width="233" height="61" fill="white"/>
</clipPath>
</defs>
</svg>
